<svg width="22" height="22" fill="none" xmlns="http://www.w3.org/2000/svg"><path fill-rule="evenodd" clip-rule="evenodd" d="M12.026 1.407c-.091.363-.364.726-.683 1.09-.365.408-.82.77-1.321 1.134-.547.363-1.139.726-1.777 1.044-.637.317-1.32.544-2.004.771-.683.182-1.275.272-1.822.318-.5 0-.956-.046-1.275-.182-.319-.136-.546-.317-.638-.59-.16-.4.179-.971.456-1.247.091-.091.182-.227.273-.318l.319-.318.319-.272.364-.246.32-.227.318-.227.319-.181.273-.182.273-.181s-.716.753-.989 1.044c-.53.662-.203.957.67.812.274 0 .547-.09.911-.181.32-.091.638-.227.957-.363.319-.137.592-.318.865-.5.274-.181.501-.363.684-.59.182-.181.318-.363.364-.544.045-.182.045-.318 0-.409-.046-.09-.182-.181-.364-.227C8.655.59 8.473.59 8.2.635c-.228.046-.547.046-.866.182-.227.045-.318.09-.5.181.592-.317.956-.453 1.594-.68C8.838.182 9.11.09 9.52.045 9.93 0 10.34 0 10.659 0c.365.045.638.09.866.227.228.136.41.272.455.454.091.227.137.454.046.726ZM20.404 16.339s-.136.408-.273.635c-.137.227-.364.545-.364.545s-.091.09-.137.181c-.137.182-.41.5-.41.5l-.319.363c-.364.363-.729.68-1.184 1.043-.455.318-.91.636-1.412.908-.501.272-1.047.5-1.594.726-.547.227-1.093.363-1.685.5-.091.045-.228.045-.32.045-.09 0-.227.045-.318.045s-.228.046-.319.046-.228 0-.319.045l-.637.045H10.293l-.683-.045s-.137 0-.183-.045c-.273-.046-.455-.046-.728-.137-.274-.045-.73-.181-.73-.181l-.364-.136v-.09c.274.09.593.18.911.226a7.5 7.5 0 0 0 1.048.09c.364 0 .774 0 1.184-.045.41-.045.866-.09 1.321-.227a13.75 13.75 0 0 0 3.006-.998 14.242 14.242 0 0 0 2.688-1.543c.82-.59 1.503-1.18 2.095-1.86.227-.182.41-.364.546-.636Z" fill="#fff"/><path fill-rule="evenodd" clip-rule="evenodd" d="m14.486.545.729.272.729.318.273.136c.182.09.364.227.5.363.138.136.274.318.365.454.091.181.137.363.182.59.046.227 0 .454-.045.68-.137.636-.501 1.362-1.093 2.043-.592.726-1.412 1.452-2.323 2.133-.957.68-2.05 1.362-3.234 1.906-1.184.545-2.414 1.044-3.69 1.362-1.138.272-2.14.454-3.006.454-.865 0-1.594-.091-2.186-.273-.546-.227-1.002-.499-1.23-.908A1.838 1.838 0 0 1 .275 8.67l.046-.227.182-.727.273-.726.228-.635c.496-.934-.163.354.045.908.137.363.41.68.866.862a4.282 4.282 0 0 0 1.822.272c.774 0 1.64-.136 2.642-.408a16.022 16.022 0 0 0 2.915-1.09 17.664 17.664 0 0 0 2.596-1.497 11.97 11.97 0 0 0 1.913-1.68c.455-.544.774-1.089.91-1.588.046-.272.092-.499.046-.726a1.035 1.035 0 0 0-.273-.545 1.243 1.243 0 0 0-.547-.408c-.136-.09-.318-.136-.5-.182l-.228-.09c.136 0 .182.045.273.045 0 0 .273.045.41.09.228.092.592.228.592.228Z" fill="#fff"/><path fill-rule="evenodd" clip-rule="evenodd" d="m19.375 3.887.484.56.5.727.228.363c.046.136.137.227.183.363.045.136.09.272.09.409.046.136.046.272.046.408 0 .136 0 .318-.045.454-.091.817-.501 1.725-1.184 2.632-.684.908-1.595 1.816-2.733 2.678a23.103 23.103 0 0 1-3.872 2.36 21.746 21.746 0 0 1-4.463 1.588c-1.094.273-2.096.409-3.007.409a9.476 9.476 0 0 1-2.368-.182 3.907 3.907 0 0 1-1.64-.726c-.41-.318-.729-.68-.91-1.134l-.183-.5-.228-.817-.182-.862-.045-.227L0 11.936c.046.454.228.863.547 1.18.364.363.865.636 1.503.863.637.181 1.457.272 2.368.272.911-.045 1.959-.182 3.097-.454 1.412-.363 2.87-.862 4.19-1.498 1.367-.635 2.597-1.407 3.69-2.178 1.048-.817 1.959-1.634 2.596-2.496.638-.817 1.048-1.634 1.184-2.406.046-.227.046-.408.046-.59 0-.181-.046-.363-.091-.544a1.419 1.419 0 0 0-.228-.454c-.045-.09-.136-.182-.182-.272l.655.528Z" fill="#fff"/><path fill-rule="evenodd" clip-rule="evenodd" d="M21.953 10.03c.046.68.091 1.089-.045 1.77-.182 1.044-.456 1.679-1.048 2.496-.592.862-1.412 1.724-2.414 2.541-1.002.817-2.186 1.544-3.461 2.134-1.276.59-2.642 1.089-4.009 1.406-.728.137-1.412.273-2.05.318-.637.046-1.229.046-1.776 0-.546-.045-1.002-.181-1.457-.318-.41-.136-.82-.317-1.139-.544l-.683-.5-.547-.499s-.364-.363-.592-.635c-.136-.227-.364-.5-.364-.5-.046-.045 0 0 0 0 .273.273.592.545.956.772.456.227 1.002.409 1.64.545.638.09 1.367.136 2.186.136.82-.045 1.686-.136 2.597-.363a18.554 18.554 0 0 0 4.372-1.543c1.412-.68 2.688-1.452 3.78-2.315 1.094-.862 2.005-1.77 2.642-2.677.638-.908 1.048-1.816 1.14-2.633v-.544c0-.091.09.363.09.363s.137.317.182.59Z" fill="#fff"/></svg>