<svg width="21" height="23" fill="none" xmlns="http://www.w3.org/2000/svg"><path d="M3.573 22.978c-.931.058-.931.058-1.222-.754-.757-2.03-1.513-4.002-2.27-6.033-.116-.29-.116-.522.058-.812C2.816 10.333 5.493 5.344 8.17.297c.175-.29.291-.406.582-.174A856.324 856.324 0 0 0 20.74 8.07c.29.174.35.29.116.58-2.91 4.467-5.877 8.992-8.787 13.458-.116.174-.175.348-.466.348-2.735.174-5.47.348-8.03.522Zm2.037-6.787c-1.223 0-2.27.928-2.27 2.147 0 1.16.931 2.204 2.037 2.262 1.338.058 2.386-.928 2.386-2.204.058-1.219-.931-2.205-2.153-2.205Z" fill="#fff"/></svg>