<svg width="14" height="26" fill="none" xmlns="http://www.w3.org/2000/svg"><path d="M.004 0v6.874c.116 0 .21.007.304 0 1.856-.162 3.714-.312 5.567-.499.672-.067 1.336-.218 1.998-.347.105-.02.191-.126.287-.193-.086-.08-.16-.2-.262-.234a9.477 9.477 0 0 0-1.158-.307C6.1 5.176 5.455 5.098 4.77 5c.212-.257.386-.5.598-.71.094-.093.269-.174.396-.16.653.067 1.307.14 1.95.261.82.154 1.644.325 2.35.798.635.426.628.987-.044 1.352-.417.22-.858.394-1.316.518-.61.17-1.238.278-1.888.42.254.053.486.094.711.147.905.213 1.821.4 2.618.898.553.346.582.812.045 1.184a3.99 3.99 0 0 1-1.095.536c-.668.203-1.36.335-2.027.491.01 0 .04.01.071.016.99.178 1.98.363 2.886.81.289.142.616.294.633.666.019.399-.308.579-.603.764a1.62 1.62 0 0 1-.337.167c-.489.165-.975.341-1.473.475-.498.134-.997.219-1.382.3.989.278 2.067.569 3.135.888.224.067.426.224.618.364.201.149.223.373.063.541-.197.205-.422.43-.682.528-.695.267-1.413.48-2.127.702-.27.083-.553.128-.79.184.788.162 1.6.303 2.397.504.365.103.711.261 1.024.47.402.255.446.649.135 1.005-.16.19-.358.347-.582.461a9.366 9.366 0 0 1-1.292.502c-.461.14-.94.227-1.447.345.486.1.942.157 1.372.29.624.187 1.235.41 1.833.664.396.17.572.514.56.953-.018.778-.006 1.556-.006 2.334V26H14V0H.004Zm.24 16.769c2.02-.21 4.042-.408 6.06-.64.508-.058 1.009-.22 1.508-.354.093-.025.161-.139.24-.213-.084-.068-.157-.167-.254-.199a3.837 3.837 0 0 0-.767-.184 448 448 0 0 0-5.024-.483C1.345 14.635.68 14.611 0 14.57v2.2c.097 0 .171.009.244 0Zm.018-6.565c2.01-.19 4.02-.369 6.028-.583.52-.055 1.027-.221 1.537-.353.086-.023.15-.128.223-.195-.078-.073-.144-.184-.237-.212a4.01 4.01 0 0 0-.827-.2C4.735 8.448 2.48 8.25.23 8.045a1.815 1.815 0 0 0-.23.012v2.138c.087.009.175.012.262.01v-.002Zm7.79 8.476a3.046 3.046 0 0 0-.368-.238 1.055 1.055 0 0 0-.339-.076c-1.04-.1-2.08-.223-3.124-.285-1.392-.084-2.787-.119-4.21-.175v2.067c.934-.086 1.844-.147 2.742-.257 1.385-.169 2.766-.363 4.145-.562.281-.05.556-.127.82-.232.125-.046.223-.159.334-.242ZM0 11.438v1.971c.069 0 .11.003.15 0 1.668-.132 3.338-.245 5.002-.41.84-.083 1.67-.256 2.501-.408.178-.032.34-.148.509-.225l-.015-.112c-.159-.066-.313-.16-.479-.192-.434-.09-.874-.155-1.317-.197-1.403-.111-2.808-.203-4.213-.298-.705-.048-1.412-.086-2.138-.129Z" fill="#fff"/></svg>