<svg xmlns="http://www.w3.org/2000/svg" width="100" height="31" fill="none"><path d="M20.354 0 10.176 10.166h10.178v20.33l10.178-10.14V0H20.354Z" fill="#fff"/><path d="M10.178 30.497 20.357 20.33H10.178V0L0 10.141v20.356h10.178ZM40.71 25.414h5.344V9.658h8.143v15.756h5.343V5.083H40.71v20.331Zm51.907-12.713h-4.565V9.658h10.166V5.083h-15.51v20.331h10.163c4.075 0 7.128-2.04 7.128-6.357 0-4.324-3.053-6.356-7.382-6.356Zm-.51 8.393h-4.055v-4.062h4.056c1.26 0 2.537.496 2.537 2.025 0 1.53-1.277 2.037-2.537 2.037Zm-19.488-.012c-3.566 0-5.572-2.612-5.572-5.84 0-2.592 1.46-5.845 5.47-5.845 2.504 0 4.119 1.528 4.692 2.24l3.249-3.245a10.662 10.662 0 0 0-8.195-3.824c-5.902 0-10.56 4.363-10.56 10.674 0 5.895 4.658 10.674 10.56 10.674a10.682 10.682 0 0 0 8.611-4.354l-3.27-3.266c-1.034 1.619-2.723 2.786-4.985 2.786" fill="#fff"/></svg>