<svg xmlns="http://www.w3.org/2000/svg" width="170" height="40" fill="none"><g clip-path="url(#a)" fill="#fff"><path d="m95.733 0-21.29 2.781v6.301l21.29-1.9V0ZM13.17 12.653c-3.476 0-6.301 2.145-7.002 3.032v-2.573H0v26.323h6.13v-9.362c.72.907 3.525 3.013 7.02 3.013 5.801 0 8.996-3.148 8.996-10.232 0-7.083-3.19-10.2-8.976-10.2Zm-2.196 15.333c-3.652 0-4.801-1.327-4.801-5.147 0-3.819 1.14-5.146 4.801-5.146 3.661 0 4.78 1.308 4.78 5.146 0 3.84-1.102 5.139-4.78 5.139v.008ZM30.68 22.947c0 3.823 1.14 5.146 4.802 5.146 3.66 0 4.782-1.33 4.782-5.146 0-3.818-1.104-5.147-4.782-5.147-3.679 0-4.802 1.304-4.802 5.147Zm-6.433-.056c0-7.006 3.893-10.212 11.235-10.212 7.34 0 11.251 3.206 11.251 10.212s-3.867 10.323-11.251 10.323c-7.384 0-11.235-3.317-11.235-10.323ZM64.63 25.317c-.481 2.022-1.77 2.776-4.563 2.776-3.652 0-4.8-1.329-4.8-5.146 0-3.818 1.148-5.147 4.8-5.147 2.793 0 4.082.753 4.565 2.788l6.433-.487c-.96-5.061-4.727-7.413-10.998-7.413-7.341 0-11.232 3.205-11.232 10.212 0 7.006 3.867 10.323 11.232 10.323 6.267 0 9.994-2.402 10.979-7.413l-6.416-.493Z"/><path d="M91.704 14.44 74.444 2.789v6.285l5.381 3.646 1.06.617c-1.934.024-2.86.416-3.79.978-2.658 1.602-4.038 4.42-4.038 8.578 0 7.006 3.868 10.324 11.235 10.324 7.367 0 11.254-3.318 11.254-10.324 0-4.055-1.316-6.828-3.842-8.454Zm-7.412 13.653c-3.653 0-4.802-1.33-4.802-5.146 0-3.818 1.14-5.147 4.802-5.147 3.66 0 4.782 1.303 4.782 5.146s-1.102 5.147-4.782 5.147ZM97.666 22.855c0 7.077 3.191 10.232 8.996 10.232 3.493 0 6.299-2.106 7.019-3.014v2.394h6.131V13.1h-6.168v2.573c-.705-.875-3.53-3.02-7.004-3.02-5.786 0-8.974 3.138-8.974 10.202Zm6.39-.028c0-3.843 1.102-5.146 4.782-5.146 3.681 0 4.8 1.308 4.8 5.146 0 3.839-1.141 5.147-4.8 5.147s-4.785-1.323-4.785-5.147h.003ZM137.722 13.12v7.148h-8.138v-7.147h-6.168v19.343h6.168v-7.246h8.138v7.246h6.17V13.121h-6.17ZM170 32.462l-9.763-10.157 9.238-9.184h-7.631l-8.278 8.402V13.12h-6.058v19.34h6.058v-8.905l8.504 8.906H170Z"/></g><defs><clipPath id="a"><path fill="#fff" d="M0 0h170v40H0z"/></clipPath></defs></svg>