<svg width="25" height="28" fill="none" xmlns="http://www.w3.org/2000/svg"><path d="M13.915 10.383c1.062.464 2.355-.022 2.84-1.128.484-1.062-.023-2.301-1.131-2.766-1.062-.464-2.355.022-2.84 1.128a2.125 2.125 0 0 0 1.131 2.766ZM.783 20.913a.543.543 0 0 0-.738.31c-.116.31 0 .62.323.73.277.133.623 0 .761-.31a.658.658 0 0 0-.346-.73ZM8.907 1.091c.277.133.623 0 .762-.31.115-.31 0-.62-.324-.73-.323-.132-.623 0-.761.31a.555.555 0 0 0 .323.73Zm6.001 25.818c-.277-.133-.623 0-.762.31-.115.31 0 .62.323.73.277.132.624 0 .762-.31.07-.265-.046-.62-.323-.73Zm9.74-20.376c-.277-.132-.623 0-.761.31-.116.31 0 .62.323.73.277.133.623 0 .761-.31.093-.243-.046-.575-.323-.73Zm-1.57.376a.956.956 0 0 0-1.292.51c-.092.265-.115.486-.023.707-.184-.332-.508-.686-.9-.818-.923-.376-2.031.022-2.4.929-.139.31-.185.708-.116 1.018-1.062 1.194-2.308 1.946-3.416 2.08a3.37 3.37 0 0 1-.67 0 2.118 2.118 0 0 1-.669-.178c-1.061-.464-1.708-1.681-1.846-3.274-.023-.31-.07-.708-.023-1.018 0-.155.023-.31.023-.442.323-.177.53-.465.715-.797a1.769 1.769 0 0 0-.946-2.345 1.73 1.73 0 0 0-1.246-.066c.254-.089.392-.266.508-.509.253-.487-.024-1.084-.531-1.261a.956.956 0 0 0-1.293.509c-.254.487.023 1.084.53 1.26.209.09.44.111.647.067a1.784 1.784 0 0 0-.992.952c-.323.774-.093 1.659.577 2.146-.023.132-.023.265-.023.376-.023.442-.023.885.023 1.283.138 1.637.738 3.053 1.73 4.026-1.06.067-2.169.553-3.23 1.372-1.247.951-2.447 2.433-3.417 4.225-.623.089-1.177.465-1.43 1.062-.208.443-.185.952-.024 1.372a1.26 1.26 0 0 0-.484-.42.956.956 0 0 0-1.293.508c-.254.487.023 1.084.53 1.262a.956.956 0 0 0 1.293-.51c.093-.265.116-.486.024-.707.184.332.507.685.9.818.923.376 2.03-.022 2.4-.929.162-.376.185-.774.092-1.15.785-1.637 1.8-2.92 2.886-3.761.923-.73 1.8-1.062 2.423-.775.323.133.577.443.762.819.092.2.162.442.254.708.323 1.394.069 3.34-.762 5.354a1.835 1.835 0 0 0-.785.863 1.768 1.768 0 0 0 .947 2.345c.392.177.83.199 1.246.066-.254.088-.392.266-.508.509-.254.487.023 1.084.531 1.26a.956.956 0 0 0 1.293-.508c.254-.487-.023-1.084-.531-1.261a1.09 1.09 0 0 0-.646-.066c.438-.177.807-.51.992-.952.277-.597.162-1.239-.185-1.77.854-2.3 1.108-4.623.739-6.371a7.597 7.597 0 0 0-.346-1.15c-.185-.377-.393-.753-.646-1.062.276 0 .53 0 .784-.067 1.616-.199 3.278-1.15 4.663-2.655.807.133 1.662-.31 1.985-1.061.207-.443.184-.952.023-1.372.092.177.277.31.485.42a.956.956 0 0 0 1.292-.509c.092-.243-.138-.84-.623-1.062Z" fill="#fff"/></svg>