<svg width="18" height="26" fill="none" xmlns="http://www.w3.org/2000/svg"><path fill-rule="evenodd" clip-rule="evenodd" d="M17.163 9.75V8.125h-1.256v-.813h-1.674V6.5h-3.35v-.813H8.792V1.22h-.838V0H4.605v1.219h-.838V11.78H3.35v-.812H0v4.062h.419v1.219h1.255v2.438H2.93v2.437h1.256v2.031h.837V26h1.675l9.209-1.219v-3.25h.837v-3.25H18V9.75h-.837Zm-.837 7.313v.812h-.838v2.438h-.418v.812h-.837v2.179l-7.535.96v-2.326H5.86v-2.032H4.605v-2.031H3.349v-2.438H2.093V14.22h-.837v-1.625h1.256v1.219h1.255v3.25h1.675V1.624h1.674v10.563h1.675V7.311h1.674v4.875h1.675V8.125h1.255v1.219h2.093v1.219h1.256v6.5h-.418Z" fill="#fff"/></svg>