<svg width="60" height="17" fill="none" xmlns="http://www.w3.org/2000/svg"><path d="M49.843 11.917H42.41V9.81h7.433v2.107Z" fill="#fff"/><path fill-rule="evenodd" clip-rule="evenodd" d="M39.123 0h12.023a4.13 4.13 0 0 1 1.519.287c.482.19.92.47 1.288.821.369.352.661.77.86 1.23.2.46.302.952.302 1.45v.99h.917c1.053 0 2.062.4 2.806 1.11A3.703 3.703 0 0 1 60 8.567a3.703 3.703 0 0 1-1.162 2.678 4.065 4.065 0 0 1-2.806 1.11h-.917v.877a3.588 3.588 0 0 1-.309 1.435 3.73 3.73 0 0 1-.863 1.212 3.931 3.931 0 0 1-1.286.8c-.48.183-.993.274-1.51.266h-9.979a4.109 4.109 0 0 1-2.213-.644 3.837 3.837 0 0 1-1.462-1.712 3.873 3.873 0 0 1-1.977 2.036 4.146 4.146 0 0 1-3.12.133 4.007 4.007 0 0 1-1.35-.81 3.799 3.799 0 0 1-.91-1.25l-1.406-2.635L27.6 14.47a4.452 4.452 0 0 1-2.237 2.156c-.887.407-1.9.486-2.844.22a3.948 3.948 0 0 1-2.263-1.659 3.934 3.934 0 0 1-.274-.483l-1.554-2.911a4.077 4.077 0 0 1-2.081.563h-3.524v.877a3.71 3.71 0 0 1-1.191 2.628 4.07 4.07 0 0 1-2.778 1.082 4.07 4.07 0 0 1-2.777-1.082 3.71 3.71 0 0 1-1.191-2.628v-.877h-.92c-1.051 0-2.06-.4-2.805-1.11A3.703 3.703 0 0 1 0 8.567c0-1.005.418-1.968 1.162-2.679a4.065 4.065 0 0 1 2.806-1.11h.919v-.99c0-.497.102-.99.301-1.45.2-.46.492-.877.86-1.229.369-.352.806-.63 1.288-.821A4.13 4.13 0 0 1 8.854 0h9.715a4.231 4.231 0 0 1 2.126.586 3.976 3.976 0 0 1 1.494 1.558L23.713 5l1.255-2.224c.495-1.03 1.06-1.9 2.095-2.375a4.13 4.13 0 0 1 2.24-.342 4.053 4.053 0 0 1 2.07.889c.558.439 2.488 4.047 2.488 4.047l1.664-2.945.014-.025.016-.026c.286-.48.68-.894 1.151-1.214A4.093 4.093 0 0 1 39.123 0Zm12.645 2.696c-.191-.1-.405-.152-.623-.151H39.123c-.304 0-.6.101-.834.286a1.282 1.282 0 0 0-.419.426l-4.078 7.212-.27-.506-3.366-6.472a1.536 1.536 0 0 0-.418-.53 1.298 1.298 0 0 0-.084-.068 1.327 1.327 0 0 0-.884-.323 1.35 1.35 0 0 0-.563.124 1.059 1.059 0 0 0-.15.085 1.281 1.281 0 0 0-.303.268 1.218 1.218 0 0 0-.258.553l-3.854 6.875-3.842-7.2a1.383 1.383 0 0 0-.51-.526 1.471 1.471 0 0 0-.721-.204H8.854c-.216 0-.43.051-.62.15a1.277 1.277 0 0 0-.498.457 1.205 1.205 0 0 0-.184.636v3.535H3.968c-.346 0-.677.131-.921.365a1.223 1.223 0 0 0-.382.879c0 .33.138.646.382.88.244.232.575.363.92.363h3.585v3.422c.012.322.155.627.398.85.243.224.568.35.905.35.338 0 .662-.126.905-.35a1.226 1.226 0 0 0 .399-.85V9.81h6.189c.345 0 .677-.13.92-.364a1.227 1.227 0 0 0 .382-.88c0-.329-.137-.645-.381-.878a1.335 1.335 0 0 0-.921-.365h-6.19v-2.29h7.656l4.584 8.59c.032.077.073.152.121.222a1.296 1.296 0 0 0 .78.574c.183.047.375.056.564.026a1.324 1.324 0 0 0 .74-.385c.175-.166.311-.369.397-.594l3.793-6.87.004-.007 3.753 7.035a1.348 1.348 0 0 0 .142.25c.132.206.325.37.553.472.24.107.51.142.77.1.262-.043.503-.161.692-.339.189-.177.316-.404.366-.652v-.002l4.755-8.42h10.015v2.29h-8.68c-.336 0-.658.123-.9.345a1.218 1.218 0 0 0-.401.843v4.655c0 .33.138.646.383.88.244.232.576.363.921.363h9.586c.12.017.243.017.364 0h.03c.345 0 .677-.131.922-.365a1.26 1.26 0 0 0 .154-.177c.15-.207.231-.453.231-.708V9.81h3.583c.345 0 .676-.13.92-.364.245-.233.382-.55.382-.879 0-.33-.137-.646-.381-.88a1.331 1.331 0 0 0-.925-.364H52.45V3.788c0-.224-.064-.443-.184-.636a1.28 1.28 0 0 0-.498-.456Z" fill="#fff"/></svg>