<svg xmlns="http://www.w3.org/2000/svg" width="170" height="33" fill="none"><g clip-path="url(#a)" fill="#fff"><path d="M.143 27.178c.227.028.467.056.694.056h20.935c2.533 0 4.388-1.401 4.911-3.723.114-.495.128-1.033.128-1.542.014-2.378-.014-4.77.014-7.149.043-2.887 1.883-4.826 4.714-4.968.014.113.056.226.056.34 0 4.289.085 8.592-.056 12.866-.142 4.516-3.497 8.14-7.941 8.918a1.88 1.88 0 0 0-.397.142H.13c.014-1.642.014-3.298.014-4.94ZM31.568.142c.014 1.458.014 2.916.043 4.373.014.538-.283.538-.666.538-3.609-.014-7.204 0-10.814 0H10.025c-3.072 0-5.068 1.996-5.068 5.096-.014 2.336-.014 4.671-.014 6.993 0 3.043-1.401 4.727-4.374 5.294a4.349 4.349 0 0 1-.424.056V8.762c.042-.156.113-.297.141-.453C.91 4.359 3.782 1.274 7.703.382c.312-.07.623-.155.934-.24h22.931ZM170.002 10.475h-6.482v16.221h-5.436V10.461h-6.412V5.52h18.316c.014 1.656.014 3.298.014 4.954ZM59.04 14.31c-1.755 2.124-3.496 4.261-5.322 6.47-1.798-2.18-3.567-4.332-5.336-6.484-.057.015-.1.029-.156.043v12.357h-5.421V5.535h.863c1.274 0 2.548.028 3.822-.015.481-.014.779.156 1.062.524 1.528 2.038 3.071 4.063 4.614 6.087.17.226.34.439.566.707.467-.608.906-1.174 1.33-1.726a678.724 678.724 0 0 0 3.85-5.068c.256-.354.525-.524.992-.51 1.557.029 3.114.015 4.727.015v21.175h-5.42v-12.37c-.057-.03-.114-.03-.17-.043ZM148.983 5.535v21.147h-5.421v-11.82c-.057-.013-.099-.042-.156-.056-.155.212-.325.425-.481.637-2.59 3.567-5.181 7.134-7.743 10.73-.311.438-.637.594-1.16.58-1.246-.043-2.492-.014-3.78-.014V5.577h5.393v11.72a.51.51 0 0 1 .156.057c.141-.198.297-.396.439-.595 2.576-3.58 5.152-7.162 7.714-10.743.241-.354.496-.481.92-.481 1.345.014 2.69 0 4.119 0ZM120.615 5.563h5.435v21.119h-5.393v-8.224c-.268-.029-.481-.057-.679-.057-2.293 0-4.572.014-6.865-.014-.552 0-.736.142-.722.722.028 2.265.014 4.53.014 6.794v.807h-5.35V5.577h5.35v7.827h8.224c-.014-2.59-.014-5.18-.014-7.841ZM66.797 26.753c1.118-2.817 2.194-5.52 3.27-8.238 1.642-4.133 3.298-8.267 4.926-12.4.17-.439.382-.594.863-.58 1.302.042 2.59.028 3.893 0 .382 0 .58.099.736.481a8636.25 8636.25 0 0 0 8.054 20.27c.056.127.07.269.127.467-1.77 0-3.482.014-5.195-.014-.155 0-.396-.227-.467-.397-.297-.693-.523-1.415-.85-2.095-.098-.212-.424-.453-.636-.453a344.09 344.09 0 0 0-7.644 0c-.212 0-.523.255-.637.468-.325.679-.538 1.4-.849 2.095-.085.17-.354.367-.552.367-1.628.029-3.27.029-5.04.029Zm13.49-7.474a1303.8 1303.8 0 0 1-2.492-6.497c-.056 0-.113.014-.17.014-.82 2.138-1.627 4.275-2.477 6.469 1.741.014 3.383.014 5.139.014ZM90.934 5.563h13.036v4.84h-7.672v16.293h-5.364V5.563Z"/><path d="M15.896 14.084c.92-1.217 1.811-2.321 2.632-3.468.312-.438.651-.594 1.175-.566.892.043 1.784.014 2.746.014v12.4h-3.652v-6.072c-.056-.029-.113-.043-.17-.071-.891 1.075-1.783 2.151-2.731 3.298-.935-1.133-1.84-2.223-2.874-3.468v6.313H9.285v-12.4c1.118 0 2.223-.014 3.312.014.184 0 .397.227.524.397.92 1.16 1.812 2.35 2.774 3.61Z"/></g><defs><clipPath id="a"><path fill="#fff" d="M0 0h170v32.132H0z"/></clipPath></defs></svg>