<svg xmlns="http://www.w3.org/2000/svg" width="118" height="40" fill="none"><path d="M116.947 3.681h-3.77v25.594h3.77V3.681Z" fill="#fff"/><path fill-rule="evenodd" clip-rule="evenodd" d="M109.103 29.273h-3.77V11.136h3.77v18.137Zm-1.885-26.23a2.547 2.547 0 0 1 2.546 2.545 2.546 2.546 0 1 1-2.546-2.545ZM101.26 29.272h-3.704v-1.984c-1.328 1.504-3.668 2.45-5.868 2.45-5.261 0-9.534-4.272-9.534-9.535 0-5.261 4.273-9.534 9.534-9.534 2.2 0 4.416.83 5.868 2.294v-1.828h3.704v18.137ZM91.809 14.48c3.244 0 5.796 2.321 5.796 5.723 0 3.402-2.552 5.744-5.796 5.744s-5.71-2.498-5.71-5.744c0-3.244 2.466-5.723 5.71-5.723ZM54.489 29.272h-3.706V11.135h3.706v1.267c.822-.774 2.364-1.73 4.504-1.733 2.63 0 4.59 1.107 5.933 2.887 1.468-1.763 3.89-2.887 6.357-2.887 4.63 0 7.787 3.127 7.787 7.999v10.604h-3.706V18.668a4.298 4.298 0 0 0-4.292-4.293 4.297 4.297 0 0 0-4.293 4.293v10.604h-3.706V18.668a4.298 4.298 0 0 0-4.292-4.293 4.298 4.298 0 0 0-4.292 4.293v10.604Z" fill="#fff"/><path d="M25.867 19.886a5.988 5.988 0 0 1-5.982 5.98 5.988 5.988 0 0 1-5.98-5.98 5.988 5.988 0 0 1 5.98-5.982 5.988 5.988 0 0 1 5.982 5.982ZM19.885 0C8.92 0 0 8.92 0 19.886 0 30.85 8.92 39.77 19.886 39.77c4.016 0 7.89-1.196 11.2-3.459l.058-.04-2.68-3.113-.045.029a15.733 15.733 0 0 1-8.534 2.506c-8.716 0-15.808-7.092-15.808-15.809 0-8.716 7.092-15.808 15.809-15.808 8.716 0 15.808 7.092 15.808 15.809 0 1.129-.126 2.272-.372 3.397-.5 2.053-1.937 2.68-3.015 2.598-1.085-.088-2.355-.86-2.364-2.753V19.885c0-5.546-4.51-10.057-10.058-10.057-5.546 0-10.057 4.51-10.057 10.058 0 5.546 4.51 10.057 10.058 10.057a9.974 9.974 0 0 0 7.126-2.968 6.463 6.463 0 0 0 4.968 2.97 6.724 6.724 0 0 0 4.57-1.34c1.193-.906 2.083-2.214 2.575-3.786.078-.255.223-.836.223-.84l.004-.021c.29-1.261.42-2.518.42-4.072C39.771 8.92 30.85 0 19.885 0Z" fill="#fff"/></svg>