<svg xmlns="http://www.w3.org/2000/svg" width="170" height="40" fill="none"><path d="M19.55 3.188H3.521L4.736 0h15.907L19.55 3.188Zm-.607 1.593H2.914L1.7 7.97h16.029l1.214-3.188Zm-1.7 4.904H1.214L0 12.873h16.029l1.214-3.188ZM26.594 37.76h-.364c-1.579 0-2.671-1.104-2.671-2.575s1.092-2.575 2.671-2.575h.364v-.735h1.336v.858h.364c1.579 0 2.672 1.103 2.672 2.575 0 1.47-1.093 2.574-2.672 2.574h-.364v.858h-1.336v-.98Zm-.364-.981h.364v-3.065h-.364c-.85 0-1.336.49-1.336 1.594 0 .858.486 1.47 1.336 1.47Zm1.943-3.188h-.364v3.188h.364c.85 0 1.336-.49 1.336-1.594 0-.98-.486-1.594-1.336-1.594Zm9.836 1.717c0 2.329-1.579 3.31-3.157 3.31-1.58 0-3.158-.981-3.158-3.31 0-2.33 1.579-3.31 3.158-3.31 1.7 0 3.157.98 3.157 3.31Zm-4.858 0c0 2.206 1.215 2.329 1.7 2.329.486 0 1.7-.245 1.7-2.33 0-2.206-1.214-2.329-1.7-2.329-.485 0-1.7.123-1.7 2.33Zm7.893-3.188c1.579 0 2.429.858 2.429 2.084 0 1.349-.729 2.084-2.429 2.084h-.607v2.33h-1.335V32.12h1.942Zm0 3.065c.729 0 1.093-.368 1.093-1.103 0-.736-.364-1.104-1.093-1.104h-.607v2.207h.607Zm7.408-3.065v1.103h-2.55v1.472h2.307v1.103H45.9v1.594h2.55v1.103h-3.764V32.12h3.765Zm2.428 0v2.697l2.307-2.697h1.579l-2.672 2.942 2.793 3.556H53.31L51 35.43v3.188h-1.335v-6.375h1.214v-.123Zm4.129 3.188c0-2.207 1.578-3.31 3.521-3.31.486 0 .971.122 1.457.245v1.103c-.364-.123-.728-.245-1.336-.245-1.457 0-2.307.858-2.307 2.207 0 1.593 1.093 2.206 2.186 2.206.607 0 1.093-.122 1.457-.367v1.103c-.607.245-1.093.245-1.7.245-1.457.123-3.278-.858-3.278-3.187ZM57.68 20.84h2.914c1.093 0 1.7-.245 2.186-.858.243-.245.607-.858.607-1.839 0-.98-.364-1.716-.971-2.207-.365-.245-.972-.49-1.822-.49h-2.793v5.394h-.121Zm-3.764 3.188V4.78H66.3L65.21 7.97H57.68v4.29h3.036c2.428 0 3.764.614 4.614 1.349.729.613 1.821 1.962 1.821 4.536 0 2.575-1.214 4.046-2.185 4.781-1.215.858-2.429 1.104-4.979 1.104h-6.071Zm-11.05 0V8.09H37.4v-3.31h15.3L51.61 7.97H46.75v16.06h-3.885ZM27.687 12.505h2.186c.607 0 .971 0 1.336-.123.85-.245 1.457-1.103 1.457-2.207 0-1.348-.607-1.839-1.457-2.084-.365-.122-.729-.122-1.457-.122h-2.065v4.536Zm0 3.31v5.026h2.672c.85 0 1.457-.122 2.064-.613.486-.49.728-1.103.728-1.961 0-.613-.121-1.226-.485-1.717-.607-.735-1.214-.858-2.429-.858h-2.55v.123Zm6.072-1.962c.728.368 1.457.858 1.821 1.104 1.093.98 1.579 2.206 1.579 3.8 0 2.575-1.336 4.536-3.643 5.15-.729.244-1.457.244-2.793.244h-6.921V4.781h6.07c1.215 0 2.065.123 2.915.245 2.186.613 3.643 2.084 3.643 4.536 0 1.349-.486 2.452-1.214 3.188-.243.368-.729.736-1.457 1.103Zm42.5-9.072h3.521v8.214h.121l5.343-8.214h4.007l-6.435 8.95 6.921 10.298h-4.25l-5.707-9.072h-.121v9.072h-3.522V4.78h.122Zm13.964 15.325c0-3.923 3.157-4.904 7.407-4.904h.729v-.49c0-1.35-.729-2.698-2.672-2.698-1.7 0-3.278.859-4.007 1.349v-2.697c.971-.49 2.186-1.104 4.371-1.104 4.372 0 5.343 2.207 5.343 5.762v8.705h-3.035v-1.962c-.729 1.104-1.822 2.084-3.886 2.084-2.429.123-4.25-1.348-4.25-4.045Zm8.014-1.717v-.858h-.243c-2.914 0-4.614.49-4.614 2.452 0 1.349.85 2.084 2.186 2.084 1.457-.122 2.671-1.348 2.671-3.678Zm17-8.581v14.22h-3.4V12.383h-4.371V24.03h-3.4V9.808h11.171Zm6.193 0v7.11l-.121 2.575 4.614-9.563h3.521v14.221h-3.4v-6.988l.122-2.697h-.122l-4.735 9.563h-3.4V9.808h3.521Zm20.4 0v2.574h-3.643V24.03h-3.4V12.382h-3.643V9.808h10.686Zm.486 10.298c0-3.923 3.157-4.904 7.407-4.904h.728v-.49c0-1.35-.728-2.698-2.671-2.698-1.7 0-3.279.859-4.007 1.349v-2.697c.971-.49 2.186-1.104 4.371-1.104 4.372 0 5.343 2.207 5.343 5.762v8.705h-3.036v-1.962c-.728 1.104-1.821 2.084-3.885 2.084-2.429.123-4.25-1.348-4.25-4.045Zm8.014-1.717v-.858h-.243c-2.914 0-4.614.49-4.614 2.452 0 1.349.85 2.084 2.186 2.084 1.578-.122 2.671-1.348 2.671-3.678Zm4.857 5.517v-2.452c.243.123.486.123.729.123 1.093 0 1.457-.49 1.457-7.846V9.808h9.593v14.22h-3.4V12.383h-3.279v1.471c0 9.318-1.093 10.42-3.521 10.42a3.711 3.711 0 0 1-1.579-.367Z" fill="#fff"/></svg>