<svg xmlns="http://www.w3.org/2000/svg" width="97" height="34" fill="none"><path d="M14.963 30c0 2.21-1.788 4-3.991 4a3.995 3.995 0 0 1-3.992-4c0-2.21 1.788-4 3.992-4a3.996 3.996 0 0 1 3.99 4Z" fill="#fff"/><path d="m13.04 14.46.174-.035c5.06-1.053 8.732-5.582 8.732-10.768V2.071A2.07 2.07 0 0 0 19.879 0c-1.14 0-2.066.93-2.066 2.07v1.587a6.801 6.801 0 0 1-2.129 4.97 6.79 6.79 0 0 1-4.71 1.883 6.79 6.79 0 0 1-4.71-1.883 6.794 6.794 0 0 1-2.13-4.969V2.071C4.134.93 3.206 0 2.066 0 .926 0 0 .93 0 2.07v1.587c0 5.186 3.673 9.715 8.732 10.768l.175.035v4.885l-.175.035C3.672 20.432 0 24.962 0 30.148v1.586a2.07 2.07 0 0 0 2.066 2.07c1.14 0 2.067-.93 2.067-2.07v-1.587a6.8 6.8 0 0 1 2.129-4.97 6.79 6.79 0 0 1 4.71-1.883 6.79 6.79 0 0 1 4.71 1.883 6.8 6.8 0 0 1 2.129 4.97v1.587a2.07 2.07 0 0 0 2.066 2.07c1.14 0 2.067-.93 2.067-2.07v-1.587c0-5.185-3.673-9.715-8.732-10.767l-.175-.035V14.46h.002ZM31.863 11.342c-.314-.483-.531-1.062-.531-1.57 0-.868.65-1.907 1.951-1.907.82 0 1.325.41 1.855 1.255l3.854 6.132 3.879-6.132c.53-.845 1.035-1.255 1.83-1.255 1.278 0 1.952 1.038 1.952 1.908 0 .507-.218 1.11-.53 1.569l-5.131 7.822v4.273c0 1.304-.7 2.245-1.975 2.245-1.276 0-1.927-.941-1.927-2.245v-4.225l-5.228-7.87ZM56.4 25.828c-4.985 0-9.033-4.056-9.033-9.054 0-4.997 4.047-9.053 9.034-9.053 4.985 0 9.033 4.055 9.033 9.053 0 4.997-4.046 9.053-9.033 9.053Zm0-3.767c2.794 0 5.131-2.414 5.131-5.287 0-2.872-2.337-5.287-5.13-5.287-2.77 0-5.131 2.415-5.131 5.287 0 2.873 2.36 5.287 5.13 5.287ZM71.707 11.898h-3.685c-1.253 0-2.12-.7-2.12-1.956 0-1.255.867-1.955 2.12-1.955H79.32c1.228 0 2.144.7 2.144 1.955 0 1.256-.915 1.956-2.144 1.956h-3.71v11.54c0 1.303-.65 2.244-1.951 2.244-1.3 0-1.952-.941-1.952-2.245V11.898ZM91.579 10.232l5.082 12.24c.241.554.338.965.338 1.35 0 1.136-.843 1.86-1.903 1.86-.82 0-1.494-.435-1.831-1.304l-.988-2.535h-7.54l-1.011 2.535c-.338.845-.988 1.303-1.807 1.303-.964 0-1.903-.652-1.903-1.858 0-.387.096-.797.337-1.352l5.083-12.24c.578-1.4 1.638-2.244 3.06-2.244 1.397 0 2.504.844 3.083 2.245Zm-.747 8.039-2.312-5.818-2.337 5.818h4.649Z" fill="#fff"/></svg>