<svg class="svg-absolute" width="21" height="31" fill="none" xmlns="http://www.w3.org/2000/svg"><path fill-rule="evenodd" clip-rule="evenodd" d="M20.023 11.625V9.687h-1.465V8.72h-1.953V7.75h-3.907v-.969h-2.442V1.453h-.977V0H5.372v1.453h-.977v12.594h-.488v-.969H0v4.844h.488v1.453h1.465v2.906H3.42v2.907h1.465v2.421h.976V31h1.954l10.744-1.453v-3.875h.977v-3.875H21V11.625h-.977Zm-.976 8.719v.968h-.977v2.907h-.489v.968h-.976v2.598L7.814 28.93v-2.774h-.977v-2.422H5.372v-2.422H3.907v-2.906H2.442v-1.453h-.977v-1.937H2.93v1.453h1.465v3.875H6.35V1.937h1.953v12.594h1.954V8.72h1.953v5.812h1.954V9.687h1.465v1.454h2.442v1.453h1.465v7.75h-.488Z" fill="#fff"/></svg>