<svg class="name" width="153" height="29" fill="none" xmlns="http://www.w3.org/2000/svg"><path d="M114.728 10.012c-.099.099-.049.246-.049.394v9.963c0 .838.049 1.677.247 2.515.149.79.743 1.43 1.536 1.579l1.486.345c.495.099.198.493.248.74.049.246-.149.246-.347.246h-7.431c-.198 0-.396 0-.347-.296.05-.296-.247-.64.248-.74.496-.098.793-.197 1.189-.295.991-.148 1.734-1.036 1.684-2.023.05-.74.099-1.43.099-2.17v-9.42c0-2.12-.644-2.959-2.675-3.6l-.445-.148c-.347-.099-.545-.444-.446-.838 0-.05 0-.05.049-.099.05-.148.149-.099.248-.099h5.201c.248 0 .347.198.496.346l10.551 14.253c.099.148.199.247.298.395.148-.1.099-.247.099-.346V11.59c0-.888-.05-1.775-.248-2.614a1.878 1.878 0 0 0-1.338-1.43 9.348 9.348 0 0 0-1.684-.444c-.495-.099-.198-.493-.248-.74-.049-.246.149-.296.347-.296h7.431c.198 0 .396.05.297.296-.099.247.248.641-.248.74-.495.099-.99.197-1.486.345a1.628 1.628 0 0 0-1.288 1.381c-.099.592-.198 1.184-.198 1.776v14.845c0 .197.149.493-.148.641-.446.099-.892.05-1.239-.246l-4.409-5.968-7.183-9.568c-.099-.099-.148-.247-.297-.296ZM140.886 25.893h-7.827c-.198 0-.495.098-.446-.296.05-.296-.247-.74.397-.74.396 0 .792-.099 1.189-.148.743-.05 1.288-.641 1.238-1.38V9.172c0-1.183-.248-1.529-1.387-1.824a8.663 8.663 0 0 0-1.09-.247c-.594 0-.297-.444-.347-.74-.049-.394.248-.296.446-.296h14.465c.347 0 .446.099.446.444v3.847c0 .148.099.444-.198.444-.297 0-.743.247-.941-.247-.297-.887-.793-1.677-1.437-2.367a2.744 2.744 0 0 0-1.932-.986c-1.585-.099-3.22 0-4.805-.05-.198 0-.297.05-.297.296v7.3c0 .246.099.295.347.295.941 0 1.832 0 2.774-.049.842-.05 1.585-.592 1.932-1.38.198-.445.346-.938.446-1.431.049-.345.198-.395.495-.395.743 0 .594-.098.594.641v6.659c0 .246.05.493-.297.444-.347-.05-.743.246-.792-.346-.05-.591-.248-1.134-.496-1.677a2.156 2.156 0 0 0-1.734-1.282 19.94 19.94 0 0 0-2.972-.05c-.248 0-.297.1-.297.297v6.51c0 1.085.446 1.578 1.486 1.677 1.783.197 3.567.197 5.3-.099.545-.099 1.041-.394 1.338-.838a14.194 14.194 0 0 0 1.783-3.305.924.924 0 0 1 1.041-.246c.099.098.049.197.049.296-.099 1.677-.247 3.403-.297 5.129 0 .345-.149.394-.446.394h-7.827M76.09 16.966h4.012c.198 0 .445-.05.396.246-.05.296.248.691-.297.79-.347.049-.694.098-1.04.197-.793.05-1.388.74-1.289 1.529v4.587c0 .246 0 .345-.247.443a18.269 18.269 0 0 1-7.035 1.579c-4.557.098-8.52-3.107-9.461-7.546-.644-2.762-.298-5.672 1.09-8.187a9.921 9.921 0 0 1 9.61-4.982c1.337.148 2.675.543 3.864 1.184.297.148.446.148.545-.148.148-.444.644-.74 1.09-.592.297 0 .396.099.396.395 0 1.923.05 3.896.099 5.82 0 .246.149.591-.1.64-.296.05-.643.05-.94 0-.198 0-.149-.197-.198-.345a16.68 16.68 0 0 0-.991-2.613c-.595-1.43-1.833-2.516-3.32-3.009-2.278-.641-4.705.148-6.142 2.022a9.83 9.83 0 0 0-1.833 4.932c-.347 2.22-.099 4.537.694 6.658.644 1.973 2.18 3.502 4.111 4.192a6.264 6.264 0 0 0 5.152-.493.974.974 0 0 0 .595-.887c.05-1.233.05-2.516 0-3.749-.05-.838-.397-1.184-1.239-1.43-.594-.148-1.14-.247-1.734-.247-.594-.049-.247-.493-.297-.74-.05-.246.149-.295.397-.295l4.111.049ZM56.323 25.893h-3.715c-.297 0-.446-.05-.396-.395.05-.345-.199-.64.346-.64.595 0 1.14-.149 1.685-.346.346-.05.544-.395.445-.74v-.098c-.099-.296-.198-.642-.297-.938-.396-1.134-.842-2.268-1.238-3.403-.05-.246-.297-.394-.496-.394h-6.34c-.199 0-.397 0-.496.247-.495 1.282-.941 2.564-1.238 3.945a.945.945 0 0 0 .545 1.233c.05 0 .099.05.198.05.594.197 1.189.345 1.783.394.545 0 .248.444.297.69.05.247-.099.346-.346.346h-6.738c-.198 0-.445 0-.346-.296.099-.296-.248-.69.297-.74a3.496 3.496 0 0 0 3.022-2.515c2.08-5.376 4.21-10.703 6.291-16.079a.669.669 0 0 1 .743-.444c.347 0 .594 0 .793.494 2.08 5.474 4.26 10.9 6.34 16.423.347 1.184 1.388 2.022 2.626 2.17.594.099.297.493.347.74.05.247-.248.247-.446.247l-3.666.049ZM49.487 10.16c-.05.05-.1.099-.1.148-.94 2.417-1.882 4.784-2.773 7.151-.149.346.099.247.247.247h5.152c.347 0 .446-.05.298-.444a124.409 124.409 0 0 1-1.536-3.847l-1.288-3.255ZM31.606 6.116h8.223c.397 0 .496.098.496.493v4.488c0 .148.099.444-.199.395-.297-.05-.643.246-.792-.247A9.808 9.808 0 0 0 37.6 8.187a2.327 2.327 0 0 0-1.833-.937c-.792 0-1.536 0-2.328-.05-.198 0-.297.05-.297.297V23.23c0 .64.445 1.183 1.09 1.331a7.596 7.596 0 0 0 1.783.345c.545.05.248.444.297.69.05.247-.099.297-.347.297h-8.669c-.297 0-.396-.148-.346-.395.049-.246-.199-.592.297-.592.495-.049.99-.098 1.486-.197.792 0 1.436-.641 1.387-1.43V7.546c0-.296-.1-.395-.396-.395-.793 0-1.685 0-2.527.099-.495.05-.941.247-1.288.641-.842.937-1.535 2.022-1.932 3.206-.198.345-.644.493-1.04.395-.1-.05-.05-.198-.05-.296V6.412c0-.395.198-.346.446-.346l8.273.05ZM89.612 25.893h-7.38c-.248 0-.496 0-.397-.345.099-.346-.248-.69.347-.69.396 0 .842-.05 1.238-.149.594-.099 1.09-.592 1.09-1.233V9.371c0-1.381-.248-1.677-1.536-2.072-.247-.098-.545-.148-.792-.197-.248 0-.347-.099-.298-.395 0-.789-.05-.64.644-.64h7.134c.198 0 .545-.149.495.295 0 .296.198.74-.446.74-.396.05-.792.099-1.189.247a1.312 1.312 0 0 0-1.09 1.183v13.563c0 .444 0 .937.1 1.381 0 .641.495 1.134 1.09 1.184 1.585.246 3.22.197 4.805-.148.495-.099.891-.395 1.189-.79a19.648 19.648 0 0 0 1.981-3.402c.248-.346.644-.444 1.04-.296.1.05.05.197.05.296-.1 1.775-.248 3.55-.396 5.326 0 .345-.248.247-.446.247h-7.381M103.733 6.116h4.112c.297 0 .446.049.396.345-.049.296.198.641-.347.641-.544 0-1.089.099-1.585.247a1.197 1.197 0 0 0-.99 1.282v14.253c0 1.085.297 1.48 1.387 1.726.445.1.891.198 1.337.247.446.05.198.444.248.69.049.247 0 .346-.297.346h-8.422c-.198 0-.297-.099-.297-.296-.05-.69-.05-.69.594-.74.446-.05.892-.098 1.288-.148a1.246 1.246 0 0 0 1.09-1.331v-14.6c.05-.591-.347-1.183-.941-1.281a9.912 9.912 0 0 0-1.734-.444c-.545-.05-.297-.444-.347-.74-.05-.296.199-.296.397-.296l4.111.099ZM3.219 26.14c-.843 0-.843 0-1.09-.642-.694-1.775-1.338-3.55-2.031-5.326a.84.84 0 0 1 0-.69c2.378-4.489 4.755-8.928 7.133-13.416.149-.296.248-.345.545-.148 3.567 2.368 7.134 4.735 10.7 7.053.248.148.297.247.149.543-2.626 3.945-5.202 7.94-7.827 11.935-.1.148-.198.296-.396.296l-7.183.394Zm1.833-5.968c-1.09 0-1.982.789-2.032 1.874 0 1.036.793 1.874 1.784 1.973 1.09.098 2.03-.74 2.13-1.825V22.046a1.877 1.877 0 0 0-1.882-1.874Z" fill="#fff"/></svg>